<mxfile host="app.diagrams.net" modified="2021-08-11T18:37:25.326Z" agent="5.0 (Windows NT 10.0; Win64; x64) AppleWebKit/537.36 (KHTML, like Gecko) Chrome/92.0.4515.131 Safari/537.36" etag="_xJw8YgXdqcsZHRXErh2" version="14.9.3" type="github">
  <diagram id="nPUzKy37fiZRvVxnJjAu" name="Page-1">
    <mxGraphModel dx="1848" dy="1698" grid="1" gridSize="10" guides="1" tooltips="1" connect="1" arrows="1" fold="1" page="1" pageScale="1" pageWidth="827" pageHeight="1169" math="0" shadow="0">
      <root>
        <mxCell id="0" />
        <mxCell id="1" parent="0" />
        <mxCell id="UCgNyJoYKYaM5vk7wW32-1" value="&lt;font style=&quot;font-size: 18px&quot;&gt;DVD&lt;/font&gt;" style="rounded=0;whiteSpace=wrap;html=1;" parent="1" vertex="1">
          <mxGeometry x="530" y="-60" width="170" height="60" as="geometry" />
        </mxCell>
        <mxCell id="UCgNyJoYKYaM5vk7wW32-2" value="&lt;font style=&quot;font-size: 18px&quot;&gt;Filme&lt;/font&gt;" style="rounded=0;whiteSpace=wrap;html=1;" parent="1" vertex="1">
          <mxGeometry x="780" y="193" width="170" height="60" as="geometry" />
        </mxCell>
        <mxCell id="UCgNyJoYKYaM5vk7wW32-4" value="&lt;font style=&quot;font-size: 18px&quot;&gt;Clientes&lt;/font&gt;" style="rounded=0;whiteSpace=wrap;html=1;" parent="1" vertex="1">
          <mxGeometry x="-10" y="-60" width="170" height="60" as="geometry" />
        </mxCell>
        <mxCell id="UCgNyJoYKYaM5vk7wW32-5" value="&lt;font style=&quot;font-size: 18px&quot;&gt;Atores&lt;/font&gt;" style="rounded=0;whiteSpace=wrap;html=1;" parent="1" vertex="1">
          <mxGeometry x="257" y="192" width="170" height="60" as="geometry" />
        </mxCell>
        <mxCell id="UCgNyJoYKYaM5vk7wW32-7" value="" style="ellipse;whiteSpace=wrap;html=1;aspect=fixed;noLabel=1;fontColor=none;fillColor=#030303;" parent="1" vertex="1">
          <mxGeometry x="-20" y="-200" width="20" height="20" as="geometry" />
        </mxCell>
        <mxCell id="UCgNyJoYKYaM5vk7wW32-8" value="" style="endArrow=none;html=1;exitX=0;exitY=0;exitDx=0;exitDy=0;entryX=0.5;entryY=1;entryDx=0;entryDy=0;" parent="1" source="UCgNyJoYKYaM5vk7wW32-4" target="UCgNyJoYKYaM5vk7wW32-7" edge="1">
          <mxGeometry width="50" height="50" relative="1" as="geometry">
            <mxPoint x="-3" y="-130" as="sourcePoint" />
            <mxPoint x="47" y="-140" as="targetPoint" />
          </mxGeometry>
        </mxCell>
        <mxCell id="UCgNyJoYKYaM5vk7wW32-20" value="Código_cliente" style="text;html=1;strokeColor=none;fillColor=none;align=center;verticalAlign=middle;whiteSpace=wrap;rounded=0;fontSize=12;" parent="1" vertex="1">
          <mxGeometry x="-12" y="-200" width="110" height="20" as="geometry" />
        </mxCell>
        <mxCell id="pUyLqFx0xx1A7PWOmCWZ-5" value="" style="ellipse;whiteSpace=wrap;html=1;aspect=fixed;noLabel=1;fontColor=none;fillColor=#FFFFFF;" parent="1" vertex="1">
          <mxGeometry x="10" y="-170" width="20" height="20" as="geometry" />
        </mxCell>
        <mxCell id="pUyLqFx0xx1A7PWOmCWZ-6" value="" style="endArrow=none;html=1;entryX=0.5;entryY=1;entryDx=0;entryDy=0;" parent="1" target="pUyLqFx0xx1A7PWOmCWZ-5" edge="1">
          <mxGeometry width="50" height="50" relative="1" as="geometry">
            <mxPoint x="20" y="-60" as="sourcePoint" />
            <mxPoint x="77" y="-110" as="targetPoint" />
          </mxGeometry>
        </mxCell>
        <mxCell id="pUyLqFx0xx1A7PWOmCWZ-8" value="Prenome" style="text;html=1;strokeColor=none;fillColor=none;align=center;verticalAlign=middle;whiteSpace=wrap;rounded=0;fontSize=12;" parent="1" vertex="1">
          <mxGeometry x="6" y="-169" width="110" height="20" as="geometry" />
        </mxCell>
        <mxCell id="pUyLqFx0xx1A7PWOmCWZ-11" value="" style="ellipse;whiteSpace=wrap;html=1;aspect=fixed;noLabel=1;fontColor=none;fillColor=#FFFFFF;" parent="1" vertex="1">
          <mxGeometry x="33" y="-149" width="20" height="20" as="geometry" />
        </mxCell>
        <mxCell id="pUyLqFx0xx1A7PWOmCWZ-12" value="" style="endArrow=none;html=1;entryX=0.5;entryY=1;entryDx=0;entryDy=0;" parent="1" target="pUyLqFx0xx1A7PWOmCWZ-11" edge="1">
          <mxGeometry width="50" height="50" relative="1" as="geometry">
            <mxPoint x="43" y="-60" as="sourcePoint" />
            <mxPoint x="100" y="-89" as="targetPoint" />
          </mxGeometry>
        </mxCell>
        <mxCell id="pUyLqFx0xx1A7PWOmCWZ-13" value="Sobrenome" style="text;html=1;strokeColor=none;fillColor=none;align=center;verticalAlign=middle;whiteSpace=wrap;rounded=0;fontSize=12;" parent="1" vertex="1">
          <mxGeometry x="33" y="-148" width="110" height="20" as="geometry" />
        </mxCell>
        <mxCell id="pUyLqFx0xx1A7PWOmCWZ-14" value="" style="ellipse;whiteSpace=wrap;html=1;aspect=fixed;noLabel=1;fontColor=none;fillColor=#FFFFFF;" parent="1" vertex="1">
          <mxGeometry x="60" y="-129" width="20" height="20" as="geometry" />
        </mxCell>
        <mxCell id="pUyLqFx0xx1A7PWOmCWZ-15" value="" style="endArrow=none;html=1;entryX=0.5;entryY=1;entryDx=0;entryDy=0;" parent="1" target="pUyLqFx0xx1A7PWOmCWZ-14" edge="1">
          <mxGeometry width="50" height="50" relative="1" as="geometry">
            <mxPoint x="70" y="-60" as="sourcePoint" />
            <mxPoint x="127" y="-69" as="targetPoint" />
          </mxGeometry>
        </mxCell>
        <mxCell id="pUyLqFx0xx1A7PWOmCWZ-16" value="Telefone" style="text;html=1;strokeColor=none;fillColor=none;align=center;verticalAlign=middle;whiteSpace=wrap;rounded=0;fontSize=12;" parent="1" vertex="1">
          <mxGeometry x="56" y="-128" width="110" height="20" as="geometry" />
        </mxCell>
        <mxCell id="pUyLqFx0xx1A7PWOmCWZ-17" value="" style="ellipse;whiteSpace=wrap;html=1;aspect=fixed;noLabel=1;fontColor=none;fillColor=#FFFFFF;" parent="1" vertex="1">
          <mxGeometry x="90" y="-110" width="20" height="20" as="geometry" />
        </mxCell>
        <mxCell id="pUyLqFx0xx1A7PWOmCWZ-18" value="" style="endArrow=none;html=1;entryX=0.5;entryY=1;entryDx=0;entryDy=0;" parent="1" target="pUyLqFx0xx1A7PWOmCWZ-17" edge="1">
          <mxGeometry width="50" height="50" relative="1" as="geometry">
            <mxPoint x="100" y="-60" as="sourcePoint" />
            <mxPoint x="157" y="-50" as="targetPoint" />
          </mxGeometry>
        </mxCell>
        <mxCell id="pUyLqFx0xx1A7PWOmCWZ-19" value="Endereço" style="text;html=1;strokeColor=none;fillColor=none;align=center;verticalAlign=middle;whiteSpace=wrap;rounded=0;fontSize=12;" parent="1" vertex="1">
          <mxGeometry x="86" y="-109" width="110" height="20" as="geometry" />
        </mxCell>
        <mxCell id="pUyLqFx0xx1A7PWOmCWZ-20" value="" style="endArrow=none;html=1;strokeColor=#FFFFFF;exitX=1;exitY=0.5;exitDx=0;exitDy=0;" parent="1" source="UCgNyJoYKYaM5vk7wW32-4" edge="1">
          <mxGeometry width="50" height="50" relative="1" as="geometry">
            <mxPoint x="360" y="70" as="sourcePoint" />
            <mxPoint x="260" y="-30" as="targetPoint" />
          </mxGeometry>
        </mxCell>
        <mxCell id="pUyLqFx0xx1A7PWOmCWZ-23" value="" style="endArrow=none;html=1;strokeColor=#FFFFFF;exitX=1;exitY=0.5;exitDx=0;exitDy=0;entryX=0;entryY=0.5;entryDx=0;entryDy=0;" parent="1" source="UCgNyJoYKYaM5vk7wW32-4" edge="1">
          <mxGeometry width="50" height="50" relative="1" as="geometry">
            <mxPoint x="360" y="60" as="sourcePoint" />
            <mxPoint x="260" y="-30" as="targetPoint" />
          </mxGeometry>
        </mxCell>
        <mxCell id="pUyLqFx0xx1A7PWOmCWZ-25" value="" style="endArrow=none;html=1;strokeColor=#FFFFFF;labelBackgroundColor=none;entryX=0;entryY=0.5;entryDx=0;entryDy=0;" parent="1" edge="1">
          <mxGeometry width="50" height="50" relative="1" as="geometry">
            <mxPoint x="160" y="-30" as="sourcePoint" />
            <mxPoint x="260" y="-30" as="targetPoint" />
          </mxGeometry>
        </mxCell>
        <mxCell id="pUyLqFx0xx1A7PWOmCWZ-27" value="" style="endArrow=none;html=1;exitX=0;exitY=0.5;exitDx=0;exitDy=0;entryX=1;entryY=0.5;entryDx=0;entryDy=0;" parent="1" target="UCgNyJoYKYaM5vk7wW32-4" edge="1">
          <mxGeometry width="50" height="50" relative="1" as="geometry">
            <mxPoint x="260" y="-30" as="sourcePoint" />
            <mxPoint x="180" y="-30" as="targetPoint" />
          </mxGeometry>
        </mxCell>
        <mxCell id="pUyLqFx0xx1A7PWOmCWZ-29" value="" style="ellipse;whiteSpace=wrap;html=1;aspect=fixed;noLabel=1;fontColor=none;fillColor=#030303;" parent="1" vertex="1">
          <mxGeometry x="254" y="-199" width="20" height="20" as="geometry" />
        </mxCell>
        <mxCell id="pUyLqFx0xx1A7PWOmCWZ-30" value="" style="endArrow=none;html=1;exitX=0;exitY=0;exitDx=0;exitDy=0;entryX=0.5;entryY=1;entryDx=0;entryDy=0;" parent="1" target="pUyLqFx0xx1A7PWOmCWZ-29" edge="1">
          <mxGeometry width="50" height="50" relative="1" as="geometry">
            <mxPoint x="264" y="-59" as="sourcePoint" />
            <mxPoint x="321" y="-139" as="targetPoint" />
          </mxGeometry>
        </mxCell>
        <mxCell id="pUyLqFx0xx1A7PWOmCWZ-31" value="Código_aluga" style="text;html=1;strokeColor=none;fillColor=none;align=center;verticalAlign=middle;whiteSpace=wrap;rounded=0;fontSize=12;" parent="1" vertex="1">
          <mxGeometry x="257" y="-199" width="110" height="20" as="geometry" />
        </mxCell>
        <mxCell id="pUyLqFx0xx1A7PWOmCWZ-32" value="" style="ellipse;whiteSpace=wrap;html=1;aspect=fixed;noLabel=1;fontColor=none;fillColor=#FFFFFF;" parent="1" vertex="1">
          <mxGeometry x="284" y="-169" width="20" height="20" as="geometry" />
        </mxCell>
        <mxCell id="pUyLqFx0xx1A7PWOmCWZ-33" value="" style="endArrow=none;html=1;entryX=0.5;entryY=1;entryDx=0;entryDy=0;" parent="1" target="pUyLqFx0xx1A7PWOmCWZ-32" edge="1">
          <mxGeometry width="50" height="50" relative="1" as="geometry">
            <mxPoint x="294" y="-59" as="sourcePoint" />
            <mxPoint x="351" y="-109" as="targetPoint" />
          </mxGeometry>
        </mxCell>
        <mxCell id="pUyLqFx0xx1A7PWOmCWZ-34" value="Data locação" style="text;html=1;strokeColor=none;fillColor=none;align=center;verticalAlign=middle;whiteSpace=wrap;rounded=0;fontSize=12;" parent="1" vertex="1">
          <mxGeometry x="288" y="-168" width="110" height="20" as="geometry" />
        </mxCell>
        <mxCell id="pUyLqFx0xx1A7PWOmCWZ-35" value="" style="ellipse;whiteSpace=wrap;html=1;aspect=fixed;noLabel=1;fontColor=none;fillColor=#FFFFFF;" parent="1" vertex="1">
          <mxGeometry x="307" y="-148" width="20" height="20" as="geometry" />
        </mxCell>
        <mxCell id="pUyLqFx0xx1A7PWOmCWZ-36" value="" style="endArrow=none;html=1;entryX=0.5;entryY=1;entryDx=0;entryDy=0;" parent="1" target="pUyLqFx0xx1A7PWOmCWZ-35" edge="1">
          <mxGeometry width="50" height="50" relative="1" as="geometry">
            <mxPoint x="317" y="-59" as="sourcePoint" />
            <mxPoint x="374" y="-88" as="targetPoint" />
          </mxGeometry>
        </mxCell>
        <mxCell id="pUyLqFx0xx1A7PWOmCWZ-37" value="Data devolução" style="text;html=1;strokeColor=none;fillColor=none;align=center;verticalAlign=middle;whiteSpace=wrap;rounded=0;fontSize=12;" parent="1" vertex="1">
          <mxGeometry x="320" y="-147" width="110" height="20" as="geometry" />
        </mxCell>
        <mxCell id="pUyLqFx0xx1A7PWOmCWZ-47" value="" style="endArrow=none;html=1;entryX=0;entryY=0.5;entryDx=0;entryDy=0;exitX=1;exitY=0.5;exitDx=0;exitDy=0;" parent="1" source="9LCyMrkoS-9tXZTEdGZc-6" target="UCgNyJoYKYaM5vk7wW32-1" edge="1">
          <mxGeometry width="50" height="50" relative="1" as="geometry">
            <mxPoint x="470" y="-30" as="sourcePoint" />
            <mxPoint x="255" y="240" as="targetPoint" />
          </mxGeometry>
        </mxCell>
        <mxCell id="pUyLqFx0xx1A7PWOmCWZ-48" value="" style="ellipse;whiteSpace=wrap;html=1;aspect=fixed;noLabel=1;fontColor=none;fillColor=#030303;" parent="1" vertex="1">
          <mxGeometry x="524" y="-200" width="20" height="20" as="geometry" />
        </mxCell>
        <mxCell id="pUyLqFx0xx1A7PWOmCWZ-49" value="" style="endArrow=none;html=1;exitX=0;exitY=0;exitDx=0;exitDy=0;entryX=0.5;entryY=1;entryDx=0;entryDy=0;" parent="1" target="pUyLqFx0xx1A7PWOmCWZ-48" edge="1">
          <mxGeometry width="50" height="50" relative="1" as="geometry">
            <mxPoint x="534" y="-60" as="sourcePoint" />
            <mxPoint x="591" y="-140" as="targetPoint" />
          </mxGeometry>
        </mxCell>
        <mxCell id="pUyLqFx0xx1A7PWOmCWZ-50" value="Código_DVD" style="text;html=1;strokeColor=none;fillColor=none;align=center;verticalAlign=middle;whiteSpace=wrap;rounded=0;fontSize=12;" parent="1" vertex="1">
          <mxGeometry x="534" y="-200" width="110" height="20" as="geometry" />
        </mxCell>
        <mxCell id="pUyLqFx0xx1A7PWOmCWZ-57" value="&lt;span style=&quot;font-size: 18px&quot;&gt;Contém&lt;/span&gt;" style="rhombus;whiteSpace=wrap;html=1;fillColor=#FFFFFF;gradientColor=none;" parent="1" vertex="1">
          <mxGeometry x="780" y="-69" width="80" height="80" as="geometry" />
        </mxCell>
        <mxCell id="pUyLqFx0xx1A7PWOmCWZ-58" value="" style="endArrow=none;html=1;exitX=1;exitY=0.5;exitDx=0;exitDy=0;entryX=0;entryY=0.5;entryDx=0;entryDy=0;" parent="1" source="UCgNyJoYKYaM5vk7wW32-1" target="pUyLqFx0xx1A7PWOmCWZ-57" edge="1">
          <mxGeometry width="50" height="50" relative="1" as="geometry">
            <mxPoint x="631" y="130" as="sourcePoint" />
            <mxPoint x="533" y="130" as="targetPoint" />
          </mxGeometry>
        </mxCell>
        <mxCell id="pUyLqFx0xx1A7PWOmCWZ-59" value="" style="endArrow=none;html=1;exitX=0.5;exitY=1;exitDx=0;exitDy=0;entryX=0.25;entryY=0;entryDx=0;entryDy=0;" parent="1" source="pUyLqFx0xx1A7PWOmCWZ-57" target="UCgNyJoYKYaM5vk7wW32-2" edge="1">
          <mxGeometry width="50" height="50" relative="1" as="geometry">
            <mxPoint x="911" y="-190" as="sourcePoint" />
            <mxPoint x="910" y="-150" as="targetPoint" />
          </mxGeometry>
        </mxCell>
        <mxCell id="pUyLqFx0xx1A7PWOmCWZ-60" value="" style="ellipse;whiteSpace=wrap;html=1;aspect=fixed;noLabel=1;fontColor=none;fillColor=#030303;" parent="1" vertex="1">
          <mxGeometry x="848" y="53" width="20" height="20" as="geometry" />
        </mxCell>
        <mxCell id="pUyLqFx0xx1A7PWOmCWZ-61" value="" style="endArrow=none;html=1;exitX=0;exitY=0;exitDx=0;exitDy=0;entryX=0.5;entryY=1;entryDx=0;entryDy=0;" parent="1" target="pUyLqFx0xx1A7PWOmCWZ-60" edge="1">
          <mxGeometry width="50" height="50" relative="1" as="geometry">
            <mxPoint x="858" y="193" as="sourcePoint" />
            <mxPoint x="915" y="113" as="targetPoint" />
          </mxGeometry>
        </mxCell>
        <mxCell id="pUyLqFx0xx1A7PWOmCWZ-62" value="Código_filme" style="text;html=1;strokeColor=none;fillColor=none;align=center;verticalAlign=middle;whiteSpace=wrap;rounded=0;fontSize=12;" parent="1" vertex="1">
          <mxGeometry x="848" y="52" width="110" height="20" as="geometry" />
        </mxCell>
        <mxCell id="pUyLqFx0xx1A7PWOmCWZ-63" value="" style="ellipse;whiteSpace=wrap;html=1;aspect=fixed;noLabel=1;fontColor=none;fillColor=#FFFFFF;" parent="1" vertex="1">
          <mxGeometry x="878" y="83" width="20" height="20" as="geometry" />
        </mxCell>
        <mxCell id="pUyLqFx0xx1A7PWOmCWZ-64" value="" style="endArrow=none;html=1;entryX=0.5;entryY=1;entryDx=0;entryDy=0;" parent="1" target="pUyLqFx0xx1A7PWOmCWZ-63" edge="1">
          <mxGeometry width="50" height="50" relative="1" as="geometry">
            <mxPoint x="888" y="193" as="sourcePoint" />
            <mxPoint x="945" y="143" as="targetPoint" />
          </mxGeometry>
        </mxCell>
        <mxCell id="pUyLqFx0xx1A7PWOmCWZ-70" value="" style="endArrow=none;html=1;exitX=1;exitY=0.5;exitDx=0;exitDy=0;entryX=0;entryY=0.5;entryDx=0;entryDy=0;" parent="1" source="UCgNyJoYKYaM5vk7wW32-5" edge="1">
          <mxGeometry width="50" height="50" relative="1" as="geometry">
            <mxPoint x="475" y="232" as="sourcePoint" />
            <mxPoint x="535" y="221.99999999999977" as="targetPoint" />
          </mxGeometry>
        </mxCell>
        <mxCell id="pUyLqFx0xx1A7PWOmCWZ-72" value="" style="ellipse;whiteSpace=wrap;html=1;aspect=fixed;noLabel=1;fontColor=none;fillColor=#030303;" parent="1" vertex="1">
          <mxGeometry x="250" y="52" width="20" height="20" as="geometry" />
        </mxCell>
        <mxCell id="pUyLqFx0xx1A7PWOmCWZ-73" value="" style="endArrow=none;html=1;exitX=0;exitY=0;exitDx=0;exitDy=0;entryX=0.5;entryY=1;entryDx=0;entryDy=0;" parent="1" target="pUyLqFx0xx1A7PWOmCWZ-72" edge="1">
          <mxGeometry width="50" height="50" relative="1" as="geometry">
            <mxPoint x="260" y="192" as="sourcePoint" />
            <mxPoint x="317" y="112" as="targetPoint" />
          </mxGeometry>
        </mxCell>
        <mxCell id="pUyLqFx0xx1A7PWOmCWZ-74" value="Código_estreia" style="text;html=1;strokeColor=none;fillColor=none;align=center;verticalAlign=middle;whiteSpace=wrap;rounded=0;fontSize=12;" parent="1" vertex="1">
          <mxGeometry x="258" y="52" width="110" height="20" as="geometry" />
        </mxCell>
        <mxCell id="pUyLqFx0xx1A7PWOmCWZ-75" value="" style="ellipse;whiteSpace=wrap;html=1;aspect=fixed;noLabel=1;fontColor=none;fillColor=#FFFFFF;" parent="1" vertex="1">
          <mxGeometry x="280" y="82" width="20" height="20" as="geometry" />
        </mxCell>
        <mxCell id="pUyLqFx0xx1A7PWOmCWZ-76" value="" style="endArrow=none;html=1;entryX=0.5;entryY=1;entryDx=0;entryDy=0;" parent="1" target="pUyLqFx0xx1A7PWOmCWZ-75" edge="1">
          <mxGeometry width="50" height="50" relative="1" as="geometry">
            <mxPoint x="290" y="192" as="sourcePoint" />
            <mxPoint x="347" y="142" as="targetPoint" />
          </mxGeometry>
        </mxCell>
        <mxCell id="pUyLqFx0xx1A7PWOmCWZ-77" value="Nome Real" style="text;html=1;strokeColor=none;fillColor=none;align=center;verticalAlign=middle;whiteSpace=wrap;rounded=0;fontSize=12;" parent="1" vertex="1">
          <mxGeometry x="282" y="83" width="110" height="20" as="geometry" />
        </mxCell>
        <mxCell id="pUyLqFx0xx1A7PWOmCWZ-78" value="" style="ellipse;whiteSpace=wrap;html=1;aspect=fixed;noLabel=1;fontColor=none;fillColor=#FFFFFF;" parent="1" vertex="1">
          <mxGeometry x="303" y="103" width="20" height="20" as="geometry" />
        </mxCell>
        <mxCell id="pUyLqFx0xx1A7PWOmCWZ-79" value="" style="endArrow=none;html=1;entryX=0.5;entryY=1;entryDx=0;entryDy=0;" parent="1" target="pUyLqFx0xx1A7PWOmCWZ-78" edge="1">
          <mxGeometry width="50" height="50" relative="1" as="geometry">
            <mxPoint x="312.9999999999998" y="192" as="sourcePoint" />
            <mxPoint x="370" y="163" as="targetPoint" />
          </mxGeometry>
        </mxCell>
        <mxCell id="pUyLqFx0xx1A7PWOmCWZ-80" value="Nome Personagem" style="text;html=1;strokeColor=none;fillColor=none;align=center;verticalAlign=middle;whiteSpace=wrap;rounded=0;fontSize=12;" parent="1" vertex="1">
          <mxGeometry x="322" y="104" width="110" height="20" as="geometry" />
        </mxCell>
        <mxCell id="pUyLqFx0xx1A7PWOmCWZ-81" value="" style="ellipse;whiteSpace=wrap;html=1;aspect=fixed;noLabel=1;fontColor=none;fillColor=#FFFFFF;" parent="1" vertex="1">
          <mxGeometry x="330" y="123" width="20" height="20" as="geometry" />
        </mxCell>
        <mxCell id="pUyLqFx0xx1A7PWOmCWZ-82" value="" style="endArrow=none;html=1;entryX=0.5;entryY=1;entryDx=0;entryDy=0;" parent="1" target="pUyLqFx0xx1A7PWOmCWZ-81" edge="1">
          <mxGeometry width="50" height="50" relative="1" as="geometry">
            <mxPoint x="340" y="192" as="sourcePoint" />
            <mxPoint x="397" y="183" as="targetPoint" />
          </mxGeometry>
        </mxCell>
        <mxCell id="pUyLqFx0xx1A7PWOmCWZ-83" value="Data nascimento" style="text;html=1;strokeColor=none;fillColor=none;align=center;verticalAlign=middle;whiteSpace=wrap;rounded=0;fontSize=12;" parent="1" vertex="1">
          <mxGeometry x="344" y="125" width="110" height="20" as="geometry" />
        </mxCell>
        <mxCell id="pUyLqFx0xx1A7PWOmCWZ-88" value="(0,1)" style="text;html=1;strokeColor=none;fillColor=none;align=center;verticalAlign=middle;whiteSpace=wrap;rounded=0;fontSize=18;" parent="1" vertex="1">
          <mxGeometry x="166" y="-60" width="40" height="20" as="geometry" />
        </mxCell>
        <mxCell id="pUyLqFx0xx1A7PWOmCWZ-91" value="(0,n)" style="text;html=1;strokeColor=none;fillColor=none;align=center;verticalAlign=middle;whiteSpace=wrap;rounded=0;fontSize=18;" parent="1" vertex="1">
          <mxGeometry x="484" y="-60" width="40" height="20" as="geometry" />
        </mxCell>
        <mxCell id="pUyLqFx0xx1A7PWOmCWZ-93" value="(0,n)" style="text;html=1;strokeColor=none;fillColor=none;align=center;verticalAlign=middle;whiteSpace=wrap;rounded=0;fontSize=18;" parent="1" vertex="1">
          <mxGeometry x="432" y="192" width="40" height="20" as="geometry" />
        </mxCell>
        <mxCell id="pUyLqFx0xx1A7PWOmCWZ-94" value="(1,1)" style="text;html=1;strokeColor=none;fillColor=none;align=center;verticalAlign=middle;whiteSpace=wrap;rounded=0;fontSize=18;" parent="1" vertex="1">
          <mxGeometry x="780" y="160" width="40" height="20" as="geometry" />
        </mxCell>
        <mxCell id="9LCyMrkoS-9tXZTEdGZc-3" value="" style="rounded=0;whiteSpace=wrap;html=1;" vertex="1" parent="1">
          <mxGeometry x="260" y="-59" width="170" height="60" as="geometry" />
        </mxCell>
        <mxCell id="9LCyMrkoS-9tXZTEdGZc-6" value="&lt;span style=&quot;font-size: 18px&quot;&gt;Aluga&lt;/span&gt;" style="rhombus;whiteSpace=wrap;html=1;fillColor=#FFFFFF;gradientColor=none;" vertex="1" parent="1">
          <mxGeometry x="260" y="-59" width="170" height="60" as="geometry" />
        </mxCell>
        <mxCell id="9LCyMrkoS-9tXZTEdGZc-7" value="" style="ellipse;whiteSpace=wrap;html=1;aspect=fixed;noLabel=1;fontColor=none;fillColor=#FFFFFF;" vertex="1" parent="1">
          <mxGeometry x="331" y="-127" width="20" height="20" as="geometry" />
        </mxCell>
        <mxCell id="9LCyMrkoS-9tXZTEdGZc-8" value="" style="endArrow=none;html=1;entryX=0.5;entryY=1;entryDx=0;entryDy=0;" edge="1" parent="1" target="9LCyMrkoS-9tXZTEdGZc-7">
          <mxGeometry width="50" height="50" relative="1" as="geometry">
            <mxPoint x="341" y="-58" as="sourcePoint" />
            <mxPoint x="398" y="-67" as="targetPoint" />
          </mxGeometry>
        </mxCell>
        <mxCell id="9LCyMrkoS-9tXZTEdGZc-9" value="Código_cliente" style="text;html=1;strokeColor=none;fillColor=none;align=center;verticalAlign=middle;whiteSpace=wrap;rounded=0;fontSize=12;" vertex="1" parent="1">
          <mxGeometry x="340" y="-126" width="110" height="20" as="geometry" />
        </mxCell>
        <mxCell id="9LCyMrkoS-9tXZTEdGZc-10" value="" style="ellipse;whiteSpace=wrap;html=1;aspect=fixed;noLabel=1;fontColor=none;fillColor=#FFFFFF;" vertex="1" parent="1">
          <mxGeometry x="361" y="-108" width="20" height="20" as="geometry" />
        </mxCell>
        <mxCell id="9LCyMrkoS-9tXZTEdGZc-11" value="" style="endArrow=none;html=1;entryX=0.5;entryY=1;entryDx=0;entryDy=0;" edge="1" parent="1" target="9LCyMrkoS-9tXZTEdGZc-10">
          <mxGeometry width="50" height="50" relative="1" as="geometry">
            <mxPoint x="371" y="-58" as="sourcePoint" />
            <mxPoint x="428" y="-48" as="targetPoint" />
          </mxGeometry>
        </mxCell>
        <mxCell id="9LCyMrkoS-9tXZTEdGZc-12" value="Código_DVD" style="text;html=1;strokeColor=none;fillColor=none;align=center;verticalAlign=middle;whiteSpace=wrap;rounded=0;fontSize=12;" vertex="1" parent="1">
          <mxGeometry x="364" y="-107" width="110" height="20" as="geometry" />
        </mxCell>
        <mxCell id="9LCyMrkoS-9tXZTEdGZc-14" value="" style="ellipse;whiteSpace=wrap;html=1;aspect=fixed;noLabel=1;fontColor=none;fillColor=#FFFFFF;" vertex="1" parent="1">
          <mxGeometry x="544" y="-144.5" width="20" height="20" as="geometry" />
        </mxCell>
        <mxCell id="9LCyMrkoS-9tXZTEdGZc-15" value="" style="endArrow=none;html=1;entryX=0.5;entryY=1;entryDx=0;entryDy=0;" edge="1" parent="1" target="9LCyMrkoS-9tXZTEdGZc-14">
          <mxGeometry width="50" height="50" relative="1" as="geometry">
            <mxPoint x="554" y="-60" as="sourcePoint" />
            <mxPoint x="611" y="-84.5" as="targetPoint" />
          </mxGeometry>
        </mxCell>
        <mxCell id="9LCyMrkoS-9tXZTEdGZc-16" value="Código_filme" style="text;html=1;strokeColor=none;fillColor=none;align=center;verticalAlign=middle;whiteSpace=wrap;rounded=0;fontSize=12;" vertex="1" parent="1">
          <mxGeometry x="557" y="-143.5" width="110" height="20" as="geometry" />
        </mxCell>
        <mxCell id="9LCyMrkoS-9tXZTEdGZc-17" value="(1,n)" style="text;html=1;strokeColor=none;fillColor=none;align=center;verticalAlign=middle;whiteSpace=wrap;rounded=0;fontSize=18;" vertex="1" parent="1">
          <mxGeometry x="710" y="-60" width="40" height="20" as="geometry" />
        </mxCell>
        <mxCell id="9LCyMrkoS-9tXZTEdGZc-18" value="Nome do Filme" style="text;html=1;strokeColor=none;fillColor=none;align=center;verticalAlign=middle;whiteSpace=wrap;rounded=0;fontSize=12;" vertex="1" parent="1">
          <mxGeometry x="885" y="83" width="110" height="20" as="geometry" />
        </mxCell>
        <mxCell id="9LCyMrkoS-9tXZTEdGZc-19" value="&lt;span style=&quot;font-size: 18px&quot;&gt;Pertence&lt;/span&gt;" style="rhombus;whiteSpace=wrap;html=1;fillColor=#FFFFFF;gradientColor=none;" vertex="1" parent="1">
          <mxGeometry x="825" y="320" width="80" height="80" as="geometry" />
        </mxCell>
        <mxCell id="9LCyMrkoS-9tXZTEdGZc-21" value="" style="endArrow=none;html=1;exitX=0.5;exitY=1;exitDx=0;exitDy=0;entryX=0.5;entryY=0;entryDx=0;entryDy=0;" edge="1" parent="1" source="UCgNyJoYKYaM5vk7wW32-2" target="9LCyMrkoS-9tXZTEdGZc-19">
          <mxGeometry width="50" height="50" relative="1" as="geometry">
            <mxPoint x="830" y="21" as="sourcePoint" />
            <mxPoint x="832.5" y="203.00000000000023" as="targetPoint" />
          </mxGeometry>
        </mxCell>
        <mxCell id="9LCyMrkoS-9tXZTEdGZc-22" value="&lt;font style=&quot;font-size: 18px&quot;&gt;Categoria&lt;/font&gt;" style="rounded=0;whiteSpace=wrap;html=1;" vertex="1" parent="1">
          <mxGeometry x="780" y="470" width="170" height="60" as="geometry" />
        </mxCell>
        <mxCell id="9LCyMrkoS-9tXZTEdGZc-24" value="" style="endArrow=none;html=1;exitX=0.5;exitY=1;exitDx=0;exitDy=0;entryX=0.5;entryY=0;entryDx=0;entryDy=0;" edge="1" parent="1" source="9LCyMrkoS-9tXZTEdGZc-19" target="9LCyMrkoS-9tXZTEdGZc-22">
          <mxGeometry width="50" height="50" relative="1" as="geometry">
            <mxPoint x="979.9999999999995" y="410" as="sourcePoint" />
            <mxPoint x="979.9999999999995" y="477" as="targetPoint" />
          </mxGeometry>
        </mxCell>
        <mxCell id="9LCyMrkoS-9tXZTEdGZc-25" value="(1,1)" style="text;html=1;strokeColor=none;fillColor=none;align=center;verticalAlign=middle;whiteSpace=wrap;rounded=0;fontSize=18;" vertex="1" parent="1">
          <mxGeometry x="820" y="440" width="40" height="20" as="geometry" />
        </mxCell>
        <mxCell id="9LCyMrkoS-9tXZTEdGZc-26" value="(0,n)" style="text;html=1;strokeColor=none;fillColor=none;align=center;verticalAlign=middle;whiteSpace=wrap;rounded=0;fontSize=18;" vertex="1" parent="1">
          <mxGeometry x="820" y="260" width="40" height="20" as="geometry" />
        </mxCell>
        <mxCell id="9LCyMrkoS-9tXZTEdGZc-27" value="" style="ellipse;whiteSpace=wrap;html=1;aspect=fixed;noLabel=1;fontColor=none;fillColor=#030303;" vertex="1" parent="1">
          <mxGeometry x="905" y="370" width="20" height="20" as="geometry" />
        </mxCell>
        <mxCell id="9LCyMrkoS-9tXZTEdGZc-28" value="" style="endArrow=none;html=1;entryX=0.5;entryY=1;entryDx=0;entryDy=0;" edge="1" parent="1" target="9LCyMrkoS-9tXZTEdGZc-27">
          <mxGeometry width="50" height="50" relative="1" as="geometry">
            <mxPoint x="915" y="470" as="sourcePoint" />
            <mxPoint x="972" y="430" as="targetPoint" />
          </mxGeometry>
        </mxCell>
        <mxCell id="9LCyMrkoS-9tXZTEdGZc-29" value="Código_Categoria" style="text;html=1;strokeColor=none;fillColor=none;align=center;verticalAlign=middle;whiteSpace=wrap;rounded=0;fontSize=12;" vertex="1" parent="1">
          <mxGeometry x="920" y="369" width="110" height="20" as="geometry" />
        </mxCell>
        <mxCell id="9LCyMrkoS-9tXZTEdGZc-30" value="" style="ellipse;whiteSpace=wrap;html=1;aspect=fixed;noLabel=1;fontColor=none;fillColor=#FFFFFF;" vertex="1" parent="1">
          <mxGeometry x="935" y="400" width="20" height="20" as="geometry" />
        </mxCell>
        <mxCell id="9LCyMrkoS-9tXZTEdGZc-31" value="" style="endArrow=none;html=1;entryX=0.5;entryY=1;entryDx=0;entryDy=0;" edge="1" parent="1" target="9LCyMrkoS-9tXZTEdGZc-30">
          <mxGeometry width="50" height="50" relative="1" as="geometry">
            <mxPoint x="945" y="470.0000000000002" as="sourcePoint" />
            <mxPoint x="1002" y="420" as="targetPoint" />
          </mxGeometry>
        </mxCell>
        <mxCell id="9LCyMrkoS-9tXZTEdGZc-32" value="Categoria" style="text;html=1;strokeColor=none;fillColor=none;align=center;verticalAlign=middle;whiteSpace=wrap;rounded=0;fontSize=12;" vertex="1" parent="1">
          <mxGeometry x="942" y="400" width="110" height="20" as="geometry" />
        </mxCell>
        <mxCell id="9LCyMrkoS-9tXZTEdGZc-36" value="" style="rounded=0;whiteSpace=wrap;html=1;" vertex="1" parent="1">
          <mxGeometry x="510" y="192" width="170" height="60" as="geometry" />
        </mxCell>
        <mxCell id="9LCyMrkoS-9tXZTEdGZc-37" value="&lt;span style=&quot;font-size: 18px&quot;&gt;Estrela&lt;/span&gt;" style="rhombus;whiteSpace=wrap;html=1;fillColor=#FFFFFF;gradientColor=none;" vertex="1" parent="1">
          <mxGeometry x="510" y="192" width="170" height="60" as="geometry" />
        </mxCell>
        <mxCell id="9LCyMrkoS-9tXZTEdGZc-38" value="" style="endArrow=none;html=1;exitX=1;exitY=0.5;exitDx=0;exitDy=0;entryX=0;entryY=0.5;entryDx=0;entryDy=0;" edge="1" parent="1" source="9LCyMrkoS-9tXZTEdGZc-37" target="UCgNyJoYKYaM5vk7wW32-2">
          <mxGeometry width="50" height="50" relative="1" as="geometry">
            <mxPoint x="830" y="21" as="sourcePoint" />
            <mxPoint x="832.5" y="203.00000000000023" as="targetPoint" />
          </mxGeometry>
        </mxCell>
        <mxCell id="9LCyMrkoS-9tXZTEdGZc-39" value="(0,n)" style="text;html=1;strokeColor=none;fillColor=none;align=center;verticalAlign=middle;whiteSpace=wrap;rounded=0;fontSize=18;" vertex="1" parent="1">
          <mxGeometry x="730" y="193" width="40" height="20" as="geometry" />
        </mxCell>
        <mxCell id="9LCyMrkoS-9tXZTEdGZc-40" value="" style="ellipse;whiteSpace=wrap;html=1;aspect=fixed;noLabel=1;fontColor=none;fillColor=#030303;" vertex="1" parent="1">
          <mxGeometry x="506" y="53" width="20" height="20" as="geometry" />
        </mxCell>
        <mxCell id="9LCyMrkoS-9tXZTEdGZc-41" value="" style="endArrow=none;html=1;exitX=0;exitY=0;exitDx=0;exitDy=0;entryX=0.5;entryY=1;entryDx=0;entryDy=0;" edge="1" parent="1" target="9LCyMrkoS-9tXZTEdGZc-40">
          <mxGeometry width="50" height="50" relative="1" as="geometry">
            <mxPoint x="516" y="193" as="sourcePoint" />
            <mxPoint x="573" y="113" as="targetPoint" />
          </mxGeometry>
        </mxCell>
        <mxCell id="9LCyMrkoS-9tXZTEdGZc-42" value="Código_estrelam" style="text;html=1;strokeColor=none;fillColor=none;align=center;verticalAlign=middle;whiteSpace=wrap;rounded=0;fontSize=12;" vertex="1" parent="1">
          <mxGeometry x="519" y="53" width="110" height="20" as="geometry" />
        </mxCell>
        <mxCell id="9LCyMrkoS-9tXZTEdGZc-43" value="" style="ellipse;whiteSpace=wrap;html=1;aspect=fixed;noLabel=1;fontColor=none;fillColor=#FFFFFF;" vertex="1" parent="1">
          <mxGeometry x="536" y="83" width="20" height="20" as="geometry" />
        </mxCell>
        <mxCell id="9LCyMrkoS-9tXZTEdGZc-44" value="" style="endArrow=none;html=1;entryX=0.5;entryY=1;entryDx=0;entryDy=0;" edge="1" parent="1" target="9LCyMrkoS-9tXZTEdGZc-43">
          <mxGeometry width="50" height="50" relative="1" as="geometry">
            <mxPoint x="546" y="193" as="sourcePoint" />
            <mxPoint x="603" y="143" as="targetPoint" />
          </mxGeometry>
        </mxCell>
        <mxCell id="9LCyMrkoS-9tXZTEdGZc-45" value="Código_filme" style="text;html=1;strokeColor=none;fillColor=none;align=center;verticalAlign=middle;whiteSpace=wrap;rounded=0;fontSize=12;" vertex="1" parent="1">
          <mxGeometry x="538" y="84" width="110" height="20" as="geometry" />
        </mxCell>
        <mxCell id="9LCyMrkoS-9tXZTEdGZc-46" value="" style="ellipse;whiteSpace=wrap;html=1;aspect=fixed;noLabel=1;fontColor=none;fillColor=#FFFFFF;" vertex="1" parent="1">
          <mxGeometry x="559" y="104" width="20" height="20" as="geometry" />
        </mxCell>
        <mxCell id="9LCyMrkoS-9tXZTEdGZc-47" value="" style="endArrow=none;html=1;entryX=0.5;entryY=1;entryDx=0;entryDy=0;" edge="1" parent="1" target="9LCyMrkoS-9tXZTEdGZc-46">
          <mxGeometry width="50" height="50" relative="1" as="geometry">
            <mxPoint x="569" y="193" as="sourcePoint" />
            <mxPoint x="626" y="164" as="targetPoint" />
          </mxGeometry>
        </mxCell>
        <mxCell id="9LCyMrkoS-9tXZTEdGZc-48" value="Código_estreia" style="text;html=1;strokeColor=none;fillColor=none;align=center;verticalAlign=middle;whiteSpace=wrap;rounded=0;fontSize=12;" vertex="1" parent="1">
          <mxGeometry x="569" y="105" width="110" height="20" as="geometry" />
        </mxCell>
      </root>
    </mxGraphModel>
  </diagram>
</mxfile>
